<?xml version="1.0" standalone="no"?><!DOCTYPE svg PUBLIC "-//W3C//DTD SVG 1.1//EN" "http://www.w3.org/Graphics/SVG/1.1/DTD/svg11.dtd"><svg t="1752000429419" class="icon" viewBox="0 0 1024 1024" version="1.1" xmlns="http://www.w3.org/2000/svg" p-id="6974" xmlns:xlink="http://www.w3.org/1999/xlink" width="48" height="48"><path d="M704 768c-24.32 0-46.72 7.04-65.92 18.56L429.44 577.92C440.96 558.72 448 536.32 448 512S440.96 465.28 429.44 446.08l208.64-208.64C657.28 248.96 679.68 256 704 256c70.4 0 128-57.6 128-128s-57.6-128-128-128S576 57.6 576 128c0 23.04 6.4 44.16 17.28 63.36L383.36 401.28C364.16 390.4 343.04 384 320 384 249.6 384 192 441.6 192 512c0 70.4 57.6 128 128 128 23.04 0 44.16-6.4 63.36-17.28l209.92 209.92C582.4 851.84 576 872.96 576 896c0 70.4 57.6 128 128 128s128-57.6 128-128C832 825.6 774.4 768 704 768zM704 64c35.2 0 64 28.8 64 64s-28.8 64-64 64c-35.2 0-64-28.8-64-64S668.8 64 704 64zM320 576C284.8 576 256 547.2 256 512s28.8-64 64-64c35.2 0 64 28.8 64 64S355.2 576 320 576zM704 960c-35.2 0-64-28.8-64-64 0-35.2 28.8-64 64-64 35.2 0 64 28.8 64 64C768 931.2 739.2 960 704 960z" p-id="6975"></path></svg>