<?xml version="1.0" standalone="no"?><!DOCTYPE svg PUBLIC "-//W3C//DTD SVG 1.1//EN" "http://www.w3.org/Graphics/SVG/1.1/DTD/svg11.dtd"><svg t="1751978602189" class="icon" viewBox="0 0 1024 1024" version="1.1" xmlns="http://www.w3.org/2000/svg" p-id="11237" xmlns:xlink="http://www.w3.org/1999/xlink" width="48" height="48"><path d="M348.16 250.88h491.52c19.78368 0 35.84 16.05632 35.84 35.84v491.52A35.84 35.84 0 0 1 839.68 814.08H245.76A35.84 35.84 0 0 1 209.92 778.24V532.48a25.6 25.6 0 0 0-51.2 0v245.76A87.04 87.04 0 0 0 245.76 865.28h593.92A87.04 87.04 0 0 0 926.72 778.24V286.72A87.04 87.04 0 0 0 839.68 199.68H348.16a25.6 25.6 0 0 0 0 51.2z" fill="#000000" p-id="11238"></path><path d="M302.08 513.6384l-66.4576-29.34784a25.6 25.6 0 0 0-20.6848 0L148.48 513.6384V430.08a25.6 25.6 0 0 0-51.2 0v122.88a25.6 25.6 0 0 0 35.9424 23.40864L225.28 535.69536l92.0576 40.67328A25.6 25.6 0 0 0 353.28 552.96v-122.88a25.6 25.6 0 0 0-51.2 0v83.5584z" fill="#000000" p-id="11239"></path><path d="M225.28 476.16a168.96 168.96 0 1 0 0-337.92 168.96 168.96 0 0 0 0 337.92z m0-51.2a117.76 117.76 0 1 1 0-235.52 117.76 117.76 0 0 1 0 235.52z" fill="#000000" p-id="11240"></path><path d="M215.04 266.24v102.4a10.24 10.24 0 1 0 20.48 0v-112.64a10.24 10.24 0 0 0-10.24-10.24H204.04224a10.24 10.24 0 1 0 0 20.48h10.99776zM527.89248 671.19104c-39.36256 23.16288-90.8288-3.70688-90.8288-49.3568V461.0048c0-45.62944 51.46624-72.4992 90.8288-49.33632l136.51968 80.42496a56.81152 56.81152 0 0 1 0 98.67264l-136.51968 80.42496z m110.53056-134.98368l-136.51968-80.42496c-6.144-3.60448-13.63968 0.32768-13.63968 5.2224v160.84992c0 4.9152 7.51616 8.8064 13.63968 5.2224l136.51968-80.42496c4.58752-2.70336 4.58752-7.74144 0-10.4448zM542.72 317.44H901.12a10.24 10.24 0 1 0 0-20.48H542.72a10.24 10.24 0 1 0 0 20.48zM174.08 768h583.168a10.24 10.24 0 0 0 0-20.48H174.08a10.24 10.24 0 1 0 0 20.48z" fill="#000000" p-id="11241"></path></svg>